PathFileType	4	(X/Y/Z)	/Users/itak/Documents/Research/Walk-IL/dataset/trc/00369_00011.trc
DataRate	CameraRate	NumFrames	NumMarkers	Units	OrigDataRate	OrigDataStartFrame	OrigNumFrames
100.000000	100.000000	4	54	mm	100.000000	0	541
Frame#	Time	RPSI			LPSI			L3			STRN			T10			C7			CLAV			RBAK			LBAK			LSHO			LUPA			LAEL			LAOL			LWTS			LWPS			LFRA			LIFD			LHPS			LHTS			RSHO			RUPA			RAEL			RAOL			RWTS			RWPS			RFRA			RIFD			RHTS			RHPS			RBHD			LFHD			RFHD			LBHD			LHIP			RHIP			RASI			LASI			LKNE			LTHI			LANK			LTIP			LTOE			LMT1			LMT5			LHEE			RKNE			RTHI			RANK			RTIP			RTOE			RMT1			RMT5			RHEE			*53			
		X1	Y1	Z1	X2	Y2	Z2	X3	Y3	Z3	X4	Y4	Z4	X5	Y5	Z5	X6	Y6	Z6	X7	Y7	Z7	X8	Y8	Z8	X9	Y9	Z9	X10	Y10	Z10	X11	Y11	Z11	X12	Y12	Z12	X13	Y13	Z13	X14	Y14	Z14	X15	Y15	Z15	X16	Y16	Z16	X17	Y17	Z17	X18	Y18	Z18	X19	Y19	Z19	X20	Y20	Z20	X21	Y21	Z21	X22	Y22	Z22	X23	Y23	Z23	X24	Y24	Z24	X25	Y25	Z25	X26	Y26	Z26	X27	Y27	Z27	X28	Y28	Z28	X29	Y29	Z29	X30	Y30	Z30	X31	Y31	Z31	X32	Y32	Z32	X33	Y33	Z33	X34	Y34	Z34	X35	Y35	Z35	X36	Y36	Z36	X37	Y37	Z37	X38	Y38	Z38	X39	Y39	Z39	X40	Y40	Z40	X41	Y41	Z41	X42	Y42	Z42	X43	Y43	Z43	X44	Y44	Z44	X45	Y45	Z45	X46	Y46	Z46	X47	Y47	Z47	X48	Y48	Z48	X49	Y49	Z49	X50	Y50	Z50	X51	Y51	Z51	X52	Y52	Z52	X53	Y53	Z53	X54	Y54	Z54	

1	0	-1371.59765625	983.1024169921875	-50.44955062866211	-1373.570190429688	982.4711303710938	-179.7449645996094	-1372.546752929688	1036.237426757812	-111.5594711303711	-1150.123046875	1233.057006835938	-124.1674499511719	-1387.863647460938	1155.316040039062	-122.9009246826172	-1357.228149414062	1405.618774414062	-143.0050811767578	-1197.669555664062	1357.246704101562	-131.2281188964844	-1398.737426757812	1265.279052734375	-74.64144134521484	-1364.48876953125	1366.169799804688	-244.348388671875	-1277.279663085938	1386.5478515625	-298.0403747558594	-1286.879272460938	1262.617797851562	-361.9408874511719	-1259.08837890625	1058.628051757812	-363.7825317382812	-1324.930786132812	1044.536865234375	-312.3246154785156	-1152.498046875	825.5445556640625	-300.8651123046875	-1189.855834960938	807.9171142578125	-357.6790161132812	-1237.793212890625	955.1580810546875	-364.1701965332031	-1129.749389648438	669.1502075195312	-289.3130493164062	-1190.0986328125	738.044677734375	-347.2200927734375	-1135.2080078125	748.488525390625	-309.2944030761719	-1306.0205078125	1398.917846679688	22.91814231872559	-1315.16650390625	1334.223999023438	86.69613647460938	-1296.675415039062	1066.64208984375	124.1832885742188	-1336.617919921875	1059.07568359375	38.51845169067383	-1183.75830078125	840.2955932617188	68.41440582275391	-1208.26416015625	826.3292236328125	135.4418640136719	-1267.177856445312	999.96044921875	131.1726226806641	-1155.42626953125	670.5567016601562	78.43009948730469	-1143.416137695312	741.6795043945312	74.99944305419922	-1190.393310546875	743.2985229492188	130.5038909912109	-1324.022216796875	1614.19482421875	-57.13604736328125	-1152.48291015625	1631.4775390625	-174.6955261230469	-1163.031616210938	1631.474731445312	-74.50988006591797	-1336.151123046875	1607.78076171875	-202.4848022460938	-1288.753662109375	925.8677368164062	-284.7880859375	-1290.470703125	931.23388671875	58.28365325927734	-1185.144653320312	958.4170532226562	11.87125968933105	-1166.0126953125	954.1099243164062	-226.0595550537109	-1246.979248046875	467.4874877929688	-274.0248107910156	-1243.673706054688	607.3302001953125	-282.5986633300781	-1319.14599609375	47.79754638671875	-262.7539978027344	-1285.002807617188	252.0918121337891	-279.8945617675781	-1112.909912109375	46.70231628417969	-199.0135192871094	-1180.867309570312	38.20968627929688	-158.9971160888672	-1191.630249023438	43.90809631347656	-273.6400451660156	-1351.875366210938	44.56768798828125	-195.0844116210938	-1262.755859375	465.4266967773438	51.04613876342773	-1199.926879882812	706.2123413085938	38.50903701782227	-1311.336669921875	52.02162933349609	41.96689605712891	-1256.053466796875	348.7851257324219	44.36587142944336	-1118.319946289062	49.46683502197266	-14.18492984771729	-1175.181030273438	43.86166763305664	-52.80934143066406	-1207.599731445312	42.41217803955078	59.38732147216797	-1362.708129882812	49.85979843139648	-4.606322765350342	nan	nan	nan	
2	0.01	-1371.560913085938	983.10205078125	-50.53736877441406	-1373.511840820312	982.4677734375	-179.8440551757812	-1372.469116210938	1036.215942382812	-111.6345062255859	-1150.109741210938	1233.05029296875	-124.1877136230469	-1387.835693359375	1155.289794921875	-122.9837493896484	-1357.237182617188	1405.59619140625	-143.0805206298828	-1197.656494140625	1357.243041992188	-131.2343444824219	-1398.752075195312	1265.254760742188	-74.75900268554688	-1364.446044921875	1366.14013671875	-244.4277954101562	-1277.205200195312	1386.540893554688	-298.0660095214844	-1286.771728515625	1262.634887695312	-362.0027160644531	-1258.90576171875	1058.6513671875	-363.9614868164062	-1324.743530273438	1044.50927734375	-312.5540161132812	-1152.220336914062	825.5574340820312	-301.2535705566406	-1189.680297851562	807.9639282226562	-358.0567626953125	-1237.651123046875	955.1873168945312	-364.4477844238281	-1129.584716796875	669.1104125976562	-289.7060546875	-1189.853637695312	738.0399169921875	-347.6294250488281	-1134.936645507812	748.516357421875	-309.6565551757812	-1306.0703125	1398.907348632812	22.87611961364746	-1315.277954101562	1334.225830078125	86.65044403076172	-1296.827758789062	1066.64453125	124.1716690063477	-1336.675537109375	1059.031982421875	38.49234390258789	-1183.738891601562	840.3286743164062	68.38959503173828	-1208.492919921875	826.3331298828125	135.5787200927734	-1267.391479492188	999.9534301757812	131.2024230957031	-1155.654052734375	670.49560546875	78.59786987304688	-1143.388061523438	741.7401733398438	75.04244232177734	-1190.5341796875	743.3151245117188	130.6293487548828	-1324.09521484375	1614.203125	-57.19523620605469	-1152.4990234375	1631.477783203125	-174.6856842041016	-1163.076049804688	1631.483764648438	-74.50080108642578	-1336.157348632812	1607.791137695312	-202.5332183837891	-1288.690673828125	925.8701171875	-284.8598937988281	-1290.538208007812	931.28369140625	58.20515823364258	-1185.133666992188	958.4248657226562	11.84050750732422	-1165.981323242188	954.0961303710938	-226.0582427978516	-1246.939331054688	467.4954833984375	-274.0755615234375	-1243.560180664062	607.320556640625	-282.6301879882812	-1319.144775390625	47.80055618286133	-262.7553405761719	-1284.93017578125	252.0714874267578	-279.9002990722656	-1112.910888671875	46.69500350952148	-199.0128936767578	-1180.867065429688	38.21622848510742	-158.9859008789062	-1191.625732421875	43.9055061340332	-273.6360778808594	-1351.8720703125	44.57644653320312	-195.0850830078125	-1262.679565429688	465.3765258789062	51.00895309448242	-1200.071166992188	706.3060913085938	38.70492553710938	-1311.32470703125	52.03727722167969	41.94867324829102	-1256.00537109375	348.7788391113281	44.33740997314453	-1118.328247070312	49.46015167236328	-14.1916446685791	-1175.171875	43.8297119140625	-52.82311248779297	-1207.597290039062	42.4120979309082	59.38484573364258	-1362.6953125	49.86743545532227	-4.618168830871582	nan	nan	nan	
3	0.02	-1371.52294921875	983.0999755859375	-50.65180969238281	-1373.43603515625	982.4630737304688	-179.9649353027344	-1372.374267578125	1036.189697265625	-111.7285537719727	-1150.089233398438	1233.041137695312	-124.2166137695312	-1387.805297851562	1155.257568359375	-123.0922164916992	-1357.24609375	1405.567993164062	-143.1729431152344	-1197.646728515625	1357.231079101562	-131.2326507568359	-1398.770263671875	1265.223876953125	-74.90412902832031	-1364.390502929688	1366.104370117188	-244.5275421142578	-1277.110473632812	1386.533447265625	-298.0985107421875	-1286.622314453125	1262.659912109375	-362.0785217285156	-1258.668212890625	1058.685180664062	-364.1863403320312	-1324.51025390625	1044.479614257812	-312.8373413085938	-1151.862060546875	825.5926513671875	-301.748779296875	-1189.459594726562	808.025390625	-358.5247802734375	-1237.466918945312	955.2269287109375	-364.7909545898438	-1129.378662109375	669.0692138671875	-290.2006530761719	-1189.554809570312	738.0427856445312	-348.1485290527344	-1134.616577148438	748.5441284179688	-310.1274719238281	-1306.130004882812	1398.893310546875	22.82694435119629	-1315.4189453125	1334.225219726562	86.58843231201172	-1297.0146484375	1066.648681640625	124.1608123779297	-1336.761840820312	1058.984619140625	38.46432495117188	-1183.708251953125	840.3687133789062	68.35459899902344	-1208.773559570312	826.3414306640625	135.7427520751953	-1267.664794921875	999.9381713867188	131.2313995361328	-1155.916015625	670.4296875	78.80521392822266	-1143.41162109375	741.81982421875	75.18907928466797	-1190.734375	743.3283081054688	130.8127593994141	-1324.189331054688	1614.212890625	-57.27404022216797	-1152.514770507812	1631.477294921875	-174.6721801757812	-1163.135375976562	1631.49560546875	-74.48944854736328	-1336.158325195312	1607.797241210938	-202.591064453125	-1288.600952148438	925.871826171875	-284.9444580078125	-1290.616577148438	931.329833984375	58.11590957641602	-1185.127075195312	958.4345092773438	11.80815696716309	-1165.92919921875	954.0810546875	-226.0514373779297	-1246.880249023438	467.5055541992188	-274.1329650878906	-1243.420288085938	607.3098754882812	-282.6686096191406	-1319.143432617188	47.80415725708008	-262.7569885253906	-1284.832885742188	252.0473327636719	-279.9070434570312	-1112.910522460938	46.68643188476562	-199.0107269287109	-1180.864868164062	38.22211837768555	-158.9735565185547	-1191.62158203125	43.90332412719727	-273.6300659179688	-1351.86865234375	44.5845832824707	-195.0859375	-1262.5908203125	465.3231811523438	50.96104431152344	-1200.24462890625	706.416259765625	38.93144607543945	-1311.309692382812	52.05693817138672	41.92496490478516	-1255.945678710938	348.7730407714844	44.29944610595703	-1118.33740234375	49.45145034790039	-14.20125484466553	-1175.1640625	43.78865051269531	-52.84408569335938	-1207.594360351562	42.41299438476562	59.38180160522461	-1362.676025390625	49.87454986572266	-4.6315598487854	nan	nan	nan	
4	0.03	-1371.487670898438	983.0950317382812	-50.78882598876953	-1373.345458984375	982.4561157226562	-180.1015625	-1372.268798828125	1036.16015625	-111.8375701904297	-1150.059814453125	1233.030517578125	-124.2546234130859	-1387.775268554688	1155.221435546875	-123.223014831543	-1357.253295898438	1405.535766601562	-143.2776641845703	-1197.64208984375	1357.208740234375	-131.2202911376953	-1398.790893554688	1265.188110351562	-75.06914520263672	-1364.323364257812	1366.064331054688	-244.643310546875	-1276.999389648438	1386.526489257812	-298.13671875	-1286.432373046875	1262.693237304688	-362.164794921875	-1258.381713867188	1058.72998046875	-364.4468078613281	-1324.245239257812	1044.45166015625	-313.16015625	-1151.455688476562	825.646728515625	-302.3281555175781	-1189.203735351562	808.0999755859375	-359.0609741210938	-1237.243530273438	955.2764892578125	-365.1821899414062	-1129.14697265625	669.0324096679688	-290.7796325683594	-1189.223266601562	738.0575561523438	-348.7594909667969	-1134.269287109375	748.568115234375	-310.6824035644531	-1306.196533203125	1398.875854492188	22.7742977142334	-1315.583984375	1334.220336914062	86.51094055175781	-1297.226318359375	1066.654663085938	124.1517715454102	-1336.8798828125	1058.937866210938	38.4376220703125	-1183.668334960938	840.412353515625	68.31202697753906	-1209.091796875	826.3541259765625	135.9239654541016	-1267.989990234375	999.9126586914062	131.2558135986328	-1156.190673828125	670.3658447265625	79.04065704345703	-1143.526977539062	741.9143676757812	75.48434448242188	-1190.9951171875	743.3316650390625	131.0551300048828	-1324.302734375	1614.223754882812	-57.37179565429688	-1152.527221679688	1631.475708007812	-174.6549682617188	-1163.208374023438	1631.510009765625	-74.47597503662109	-1336.150268554688	1607.795288085938	-202.6553649902344	-1288.484741210938	925.8720703125	-285.036865234375	-1290.695922851562	931.3674926757812	58.02228546142578	-1185.128784179688	958.4453125	11.77945899963379	-1165.851196289062	954.0673828125	-226.0377655029297	-1246.799438476562	467.5177001953125	-274.1915588378906	-1243.262573242188	607.2999877929688	-282.7127380371094	-1319.141967773438	47.80826950073242	-262.7589721679688	-1284.712768554688	252.0210418701172	-279.9143371582031	-1112.9091796875	46.67775726318359	-199.0067901611328	-1180.860229492188	38.22698974609375	-158.9614410400391	-1191.617797851562	43.90195083618164	-273.621337890625	-1351.865478515625	44.59106063842773	-195.0869293212891	-1262.495849609375	465.2709045410156	50.90339279174805	-1200.435180664062	706.5350952148438	39.16859436035156	-1311.292236328125	52.07950973510742	41.89645004272461	-1255.877807617188	348.7683410644531	44.25266265869141	-1118.346801757812	49.44087982177734	-14.21389389038086	-1175.158447265625	43.73984146118164	-52.87220001220703	-1207.590942382812	42.41558074951172	59.37821960449219	-1362.64990234375	49.88007736206055	-4.646076679229736	nan	nan	nan	
